<?xml version="1.0" standalone="no"?>
<!DOCTYPE svg PUBLIC "-//W3C//DTD SVG 20010904//EN"
 "http://www.w3.org/TR/2001/REC-SVG-20010904/DTD/svg10.dtd">
<svg version="1.0" xmlns="http://www.w3.org/2000/svg"
 width="2794.000000pt" height="1129.000000pt" viewBox="0 0 2794.000000 1129.000000"
 preserveAspectRatio="xMidYMid meet">

<g transform="translate(0.000000,1129.000000) scale(0.100000,-0.100000)"
fill="#000000" stroke="none">
<path d="M11240 10959 c-2386 -136 -5048 -1024 -7289 -2432 -1543 -969 -2840
-2158 -3664 -3358 -85 -124 -101 -159 -73 -159 7 0 81 84 164 188 82 103 203
248 268 322 121 138 628 653 758 769 201 181 275 246 431 375 925 770 2011
1468 3275 2105 1179 595 2686 1118 3991 1386 574 118 1071 188 1659 235 215
18 918 24 1145 11 925 -54 1677 -246 2260 -576 558 -315 953 -762 1124 -1270
172 -513 193 -992 70 -1624 -17 -84 -27 -156 -24 -160 11 -10 48 43 118 172
164 301 275 631 329 980 18 115 22 186 22 377 1 249 -8 336 -50 527 -63 285
-218 633 -379 853 -235 320 -559 579 -980 785 -547 267 -1164 418 -1990 486
-170 14 -967 20 -1165 8z"/>
<path d="M10490 6043 c-1095 -82 -1903 -582 -2305 -1426 -123 -258 -203 -538
-252 -877 -25 -179 -26 -769 0 -948 65 -459 196 -829 405 -1147 100 -153 157
-224 288 -358 194 -198 402 -347 669 -478 316 -154 617 -242 1029 -301 144
-21 194 -22 1099 -25 l947 -4 0 555 0 556 -702 0 c-405 0 -749 4 -812 10 -431
41 -802 202 -1076 467 -182 175 -311 383 -391 625 -146 443 -108 1012 96 1433
215 447 617 751 1132 859 201 42 297 46 1045 46 l708 0 0 510 0 510 -917 -2
c-505 -1 -938 -3 -963 -5z"/>
<path d="M13300 5355 l0 -695 700 0 700 0 0 695 0 695 -700 0 -700 0 0 -695z
m1228 3 l-3 -523 -522 -3 -523 -2 0 525 0 525 525 0 525 0 -2 -522z"/>
<path d="M13600 5355 l0 -405 400 0 400 0 0 405 0 405 -400 0 -400 0 0 -405z"/>
<path d="M2520 4298 c0 -1048 4 -1715 10 -1803 38 -513 166 -941 378 -1260 82
-125 244 -288 368 -373 279 -189 626 -306 1090 -369 186 -25 773 -25 959 0
829 112 1314 404 1579 952 139 286 222 618 256 1020 6 75 10 758 10 1808 l0
1687 -695 0 -695 0 0 -1597 c0 -977 -4 -1650 -10 -1733 -19 -250 -78 -527
-149 -698 -79 -191 -279 -349 -521 -414 -121 -32 -383 -32 -512 0 -194 48
-306 117 -384 234 -101 153 -189 344 -228 494 -52 203 -49 92 -55 1969 l-6
1740 -697 3 -698 2 0 -1662z"/>
<path d="M24010 5664 l0 -285 -34 35 c-48 51 -131 86 -219 93 -262 20 -464
-180 -484 -480 -19 -298 128 -528 365 -566 141 -23 311 42 369 140 10 16 21
29 25 29 4 0 8 -34 8 -75 l0 -75 115 0 115 0 0 735 0 735 -130 0 -130 0 0
-286z m-132 -373 c54 -28 99 -77 117 -129 17 -51 21 -260 5 -326 -14 -63 -59
-118 -119 -148 -126 -64 -260 -10 -324 131 -18 38 -21 66 -22 161 0 105 2 120
28 175 34 73 69 111 122 136 54 25 144 25 193 0z"/>
<path d="M26230 5665 l0 -286 -34 35 c-104 111 -320 126 -475 33 -316 -189
-304 -784 20 -947 157 -80 344 -49 464 76 l54 56 3 -74 3 -73 113 -3 112 -3
-2 733 -3 733 -127 3 -128 3 0 -286z m-132 -374 c54 -28 99 -77 117 -129 20
-59 20 -290 1 -345 -32 -89 -123 -157 -212 -157 -88 0 -174 52 -214 130 -68
135 -45 354 48 454 61 64 183 87 260 47z"/>
<path d="M18751 5892 c-52 -26 -75 -63 -75 -121 0 -86 51 -135 139 -135 60 0
96 19 126 67 25 39 21 106 -8 146 -24 33 -79 61 -118 61 -16 0 -45 -8 -64 -18z"/>
<path d="M22884 5892 c-27 -13 -46 -31 -57 -55 -65 -136 67 -252 205 -181 76
39 78 179 4 228 -41 26 -105 30 -152 8z"/>
<path d="M16203 5872 l-33 -3 0 -460 c0 -514 4 -556 65 -687 85 -181 230 -263
465 -264 283 -2 460 128 532 389 20 73 22 105 26 547 2 301 0 471 -6 475 -6 3
-64 5 -131 3 l-121 -3 0 -457 c0 -374 -3 -468 -15 -515 -28 -108 -71 -169
-150 -210 -58 -31 -193 -31 -251 0 -82 43 -138 140 -154 264 -5 41 -10 265
-10 499 l0 425 -92 0 c-51 0 -108 -1 -125 -3z"/>
<path d="M17958 5491 c-74 -24 -119 -53 -167 -107 l-39 -45 -7 58 c-3 32 -7
65 -8 73 -2 12 -24 16 -116 18 l-114 3 7 -38 c3 -21 6 -248 6 -505 l0 -468
130 0 130 0 0 330 c0 306 1 334 19 368 38 74 111 122 186 122 91 0 152 -48
180 -142 12 -42 15 -113 15 -365 l0 -313 128 0 127 0 -2 323 c0 177 -4 349 -7
381 -6 63 -41 150 -82 203 -79 104 -245 149 -386 104z"/>
<path d="M20515 5496 c-162 -39 -281 -155 -341 -333 -22 -63 -27 -98 -28 -183
-2 -171 39 -285 134 -381 103 -104 209 -141 400 -140 100 0 145 5 224 25 54
14 101 28 105 31 5 5 -25 164 -33 172 -1 2 -32 -4 -67 -14 -44 -12 -102 -17
-189 -18 -110 0 -131 3 -175 23 -27 13 -63 35 -79 50 -34 32 -76 116 -76 154
l0 28 338 2 337 3 3 86 c10 308 -163 511 -433 508 -38 0 -93 -6 -120 -13z
m191 -176 c62 -23 124 -123 124 -200 l0 -30 -221 0 -221 0 7 37 c8 45 40 110
69 141 55 61 156 83 242 52z"/>
<path d="M21678 5494 c-58 -18 -129 -82 -167 -152 l-28 -54 -7 101 -8 101
-110 0 -111 0 7 -92 c3 -50 6 -277 6 -505 l0 -413 125 0 125 0 0 262 c0 144 5
289 11 324 23 133 113 209 238 202 l61 -3 0 123 0 122 -47 -1 c-27 0 -69 -7
-95 -15z"/>
<path d="M22205 5497 c-112 -29 -189 -87 -232 -175 -37 -74 -39 -175 -6 -238
34 -64 112 -128 201 -164 195 -78 212 -92 212 -170 0 -51 -21 -80 -73 -99 -62
-24 -210 -4 -299 39 -23 11 -43 19 -44 17 -1 -1 -13 -42 -25 -90 -27 -101 -30
-95 67 -127 84 -28 198 -39 296 -29 155 17 283 105 317 219 26 88 8 190 -49
270 -28 39 -116 96 -195 125 -97 37 -163 72 -175 94 -17 32 -12 86 11 114 41
53 156 59 271 12 l58 -23 20 67 c34 116 35 113 -45 140 -85 29 -234 37 -310
18z"/>
<path d="M24770 5504 c-109 -17 -253 -73 -245 -97 27 -88 47 -147 50 -147 1 0
28 11 58 25 155 68 339 53 389 -32 24 -42 35 -113 17 -113 -8 0 -62 -5 -121
-10 -109 -11 -213 -37 -282 -72 -61 -31 -131 -103 -157 -161 -32 -72 -34 -201
-3 -268 58 -125 194 -190 350 -168 82 11 144 39 198 89 46 43 56 40 56 -15 0
-53 4 -55 127 -55 106 0 115 1 108 18 -4 9 -10 177 -14 372 -7 333 -9 358 -30
411 -26 67 -86 140 -145 174 -75 44 -238 66 -356 49z m288 -628 c-7 -132 -44
-192 -137 -224 -46 -16 -116 -15 -150 2 -83 43 -92 178 -17 244 52 45 132 68
245 71 l64 1 -5 -94z"/>
<path d="M18690 4985 l0 -505 130 0 130 0 -2 503 -3 502 -127 3 -128 3 0 -506z"/>
<path d="M19090 5482 c0 -5 83 -231 184 -503 l184 -494 128 0 128 0 188 490
c103 270 188 496 188 503 0 10 -30 12 -131 10 l-132 -3 -78 -250 c-43 -137
-95 -310 -116 -383 l-37 -133 -23 88 c-13 48 -34 122 -48 163 -13 41 -56 175
-95 298 l-71 222 -134 0 c-74 0 -135 -4 -135 -8z"/>
<path d="M22827 5483 c-4 -3 -7 -231 -7 -505 l0 -498 130 0 130 0 0 505 0 505
-123 0 c-68 0 -127 -3 -130 -7z"/>
<path d="M13307 4373 c-4 -3 -7 -881 -7 -1950 l0 -1943 696 -2 c458 -2 698 0
700 7 2 6 3 883 2 1950 l-3 1940 -691 2 c-380 2 -694 0 -697 -4z"/>
<path d="M16750 3559 l0 -260 -34 35 c-98 104 -301 114 -442 21 -129 -84 -194
-225 -196 -421 -1 -207 81 -363 230 -436 61 -30 74 -33 162 -33 82 0 102 4
150 27 59 29 80 45 121 95 l27 32 6 -37 c3 -20 6 -52 6 -69 l0 -33 106 0 107
0 -7 61 c-3 34 -6 336 -6 670 l0 609 -115 0 -115 0 0 -261z m-121 -338 c50
-26 97 -81 110 -128 16 -57 14 -241 -4 -300 -16 -53 -71 -115 -121 -133 -45
-18 -127 -12 -174 13 -178 89 -168 465 14 548 54 24 127 24 175 0z"/>
<path d="M18560 3150 l0 -670 120 0 120 0 0 670 -1 670 -119 0 -120 0 0 -670z"/>
<path d="M22268 3764 c-60 -32 -78 -129 -33 -183 91 -107 269 -18 226 112 -19
55 -63 87 -119 87 -26 -1 -59 -7 -74 -16z"/>
<path d="M25572 3755 c-114 -96 -9 -265 131 -211 52 20 77 58 77 120 0 36 -6
52 -29 78 -24 27 -36 32 -87 36 -54 4 -63 1 -92 -23z"/>
<path d="M21560 3750 c-185 -49 -329 -162 -408 -317 -59 -120 -76 -206 -69
-367 7 -199 53 -314 171 -431 68 -68 167 -124 266 -151 91 -25 326 -26 430 -1
110 26 106 19 85 127 -15 76 -20 90 -34 84 -91 -38 -288 -49 -386 -20 -186 54
-295 217 -295 441 0 239 128 412 338 456 71 14 231 6 291 -15 24 -9 49 -16 56
-16 16 0 62 168 49 180 -27 25 -126 43 -269 46 -126 3 -162 1 -225 -16z"/>
<path d="M17485 3405 c-27 -8 -53 -14 -56 -15 -3 0 -33 -18 -67 -40 -130 -84
-204 -238 -204 -425 0 -308 190 -478 517 -462 102 5 246 34 266 54 6 6 -16
140 -26 151 -2 2 -40 -4 -85 -14 -121 -24 -258 -16 -327 19 -28 15 -63 41 -77
60 -25 33 -55 121 -44 132 3 3 140 6 304 6 214 1 301 4 306 12 13 20 8 159 -7
226 -32 134 -105 229 -213 279 -69 31 -209 40 -287 17z m213 -174 c39 -28 70
-85 79 -146 l6 -45 -202 0 c-223 0 -212 -4 -186 71 37 103 107 152 210 146 44
-2 70 -9 93 -26z"/>
<path d="M19205 3404 c-88 -19 -179 -60 -172 -76 2 -7 13 -40 23 -73 10 -33
19 -61 19 -63 1 -1 26 9 56 22 106 49 249 54 314 12 35 -23 65 -74 65 -112 l0
-31 -92 -7 c-213 -15 -361 -84 -418 -196 -57 -111 -36 -264 47 -342 110 -103
317 -102 436 2 51 45 51 45 59 -30 3 -25 4 -25 111 -28 83 -2 107 0 101 9 -4
7 -10 161 -13 343 l-6 331 -29 61 c-34 76 -83 125 -160 160 -49 22 -75 27
-165 30 -71 3 -129 -1 -176 -12z m315 -546 c-1 -153 -65 -228 -196 -228 -50 0
-59 3 -90 34 -30 30 -34 40 -34 85 0 29 7 65 15 81 29 56 133 97 253 99 l52 1
0 -72z"/>
<path d="M20169 3407 c-184 -52 -278 -225 -203 -375 39 -78 69 -99 287 -195
60 -26 87 -59 87 -104 0 -47 -16 -72 -55 -89 -68 -28 -187 -13 -307 40 -14 6
-20 -2 -32 -44 -32 -109 -32 -114 11 -132 83 -36 121 -43 233 -43 84 0 130 5
170 18 156 52 239 193 197 338 -24 82 -72 131 -175 180 -185 87 -197 94 -210
122 -49 103 87 161 249 107 34 -12 63 -20 64 -18 2 2 13 36 25 77 18 60 19 75
8 82 -59 39 -264 60 -349 36z"/>
<path d="M22960 3407 c-205 -59 -329 -240 -330 -482 0 -242 133 -412 358 -456
38 -7 103 -10 165 -7 112 6 267 42 267 63 0 7 -7 44 -16 82 l-15 69 -72 -19
c-100 -26 -274 -21 -332 10 -76 40 -124 103 -128 168 l-2 36 282 -1 c155 0
294 2 308 6 24 6 25 8 25 98 0 149 -34 249 -116 336 -65 70 -144 102 -259 106
-54 3 -108 -1 -135 -9z m190 -165 c50 -25 92 -90 98 -151 l5 -51 -203 0 -202
0 7 33 c16 73 71 147 130 173 43 19 124 17 165 -4z"/>
<path d="M24050 3407 c-61 -17 -109 -48 -158 -101 l-40 -43 -6 68 -7 69 -100
0 -99 0 0 -460 0 -460 120 0 119 0 3 314 3 314 31 38 c54 67 78 79 154 79 80
0 111 -17 144 -81 20 -37 21 -58 24 -351 l3 -313 119 0 120 0 0 288 c0 158 -5
316 -11 352 -20 130 -88 230 -182 270 -63 28 -172 35 -237 17z"/>
<path d="M25017 3404 c-267 -64 -415 -313 -356 -596 37 -175 174 -306 354
-339 76 -14 224 -6 305 17 l62 17 -6 39 c-4 21 -11 60 -17 87 l-10 49 -47 -15
c-67 -21 -176 -20 -238 1 -107 35 -165 123 -172 257 -6 115 14 176 77 239 75
75 180 97 304 65 32 -8 61 -15 66 -15 12 0 44 161 34 171 -17 17 -147 39 -223
38 -41 0 -101 -7 -133 -15z"/>
<path d="M26180 3405 c-86 -19 -170 -54 -170 -70 0 -7 9 -42 20 -78 l20 -65
58 23 c86 35 172 48 237 36 90 -17 129 -54 136 -131 l4 -35 -95 -8 c-99 -8
-219 -36 -273 -63 -218 -111 -239 -407 -36 -519 49 -27 62 -30 149 -30 82 0
102 4 150 26 30 15 70 41 88 58 18 17 35 31 36 31 2 0 6 -22 10 -50 l7 -50
102 0 102 0 -3 282 c-3 326 -11 399 -53 485 -34 71 -83 115 -162 145 -69 27
-235 34 -327 13z m310 -554 c0 -93 -10 -124 -52 -168 -37 -38 -81 -55 -144
-55 -83 0 -130 56 -122 144 10 97 103 152 266 157 l52 1 0 -79z"/>
<path d="M27142 3405 c-71 -20 -105 -39 -148 -82 -98 -98 -107 -241 -22 -338
47 -53 94 -82 203 -125 119 -47 161 -97 136 -163 -32 -84 -190 -90 -362 -13
-13 6 -20 -8 -38 -75 -18 -67 -20 -83 -9 -90 33 -22 151 -51 225 -56 235 -16
395 85 410 259 13 141 -63 240 -234 304 -133 50 -163 75 -163 133 0 32 6 44
32 66 30 26 37 27 113 23 52 -3 97 -12 127 -26 l48 -21 10 42 c7 23 16 59 22
80 7 23 8 41 2 46 -44 40 -260 62 -352 36z"/>
<path d="M22220 2940 l0 -460 115 0 115 0 0 460 0 460 -115 0 -115 0 0 -460z"/>
<path d="M25540 2940 l0 -460 115 0 115 0 0 460 0 460 -115 0 -115 0 0 -460z"/>
<path d="M18131 1924 c-94 -34 -167 -99 -203 -181 -24 -56 -48 -164 -48 -225
l0 -48 -65 0 -65 0 0 -95 0 -95 65 0 65 0 0 -405 0 -405 125 0 125 0 0 405 0
405 110 0 110 0 0 95 0 95 -111 0 -112 0 6 74 c6 87 34 148 80 177 26 16 46
19 112 17 l80 -3 8 89 c6 60 5 92 -2 99 -19 19 -229 20 -280 1z"/>
<path d="M22403 1792 c-35 -59 -74 -126 -88 -149 l-26 -43 88 0 89 0 104 127
c58 70 113 138 123 150 l18 23 -123 0 -123 0 -62 -108z"/>
<path d="M23795 1862 c-41 -25 -56 -45 -65 -87 -19 -84 35 -156 122 -163 44
-3 59 0 88 20 89 60 87 173 -3 228 -40 25 -103 25 -142 2z"/>
<path d="M16175 1838 c-3 -7 -4 -317 -3 -688 l3 -675 128 -3 127 -3 0 691 0
690 -125 0 c-91 0 -127 -3 -130 -12z"/>
<path d="M23280 1710 c-14 -5 -64 -21 -112 -35 l-88 -26 0 -90 0 -89 -70 0
-70 0 0 -95 0 -95 69 0 69 0 4 -302 c4 -286 5 -306 26 -360 49 -122 152 -176
317 -165 133 9 135 10 135 67 0 26 -3 68 -6 93 l-6 45 -67 -1 c-50 -2 -74 3
-95 16 -51 34 -56 62 -56 347 l0 260 120 0 121 0 -3 93 -3 92 -117 3 -118 3 0
124 c0 133 0 132 -50 115z"/>
<path d="M17157 1480 c-79 -20 -181 -86 -207 -134 -20 -38 -30 -32 -30 18 0
24 -3 58 -6 75 l-6 31 -111 0 -110 0 7 -46 c3 -26 6 -251 6 -500 l0 -454 124
0 125 0 3 328 3 327 25 44 c14 24 42 58 63 75 36 29 45 31 117 31 94 0 121
-16 160 -91 25 -48 25 -48 28 -381 l3 -333 125 0 124 0 0 335 c0 207 -4 354
-11 387 -38 178 -153 284 -320 293 -41 2 -91 0 -112 -5z"/>
<path d="M18790 1474 c-131 -28 -254 -113 -314 -217 -91 -157 -98 -387 -16
-553 36 -73 133 -169 204 -202 195 -92 438 -60 588 78 70 63 113 137 138 234
37 147 22 308 -43 430 -99 189 -323 281 -557 230z m221 -194 c182 -93 185
-508 5 -619 -20 -12 -60 -25 -90 -28 -107 -11 -196 57 -241 182 -28 77 -26
242 4 319 26 66 75 126 124 150 47 23 148 21 198 -4z"/>
<path d="M20019 1475 c-60 -19 -137 -88 -168 -151 -28 -56 -27 -57 -36 59 l-7
88 -106 -3 c-95 -3 -107 -5 -106 -20 0 -10 1 -234 2 -498 l2 -480 124 0 124 0
4 298 c3 285 4 299 26 347 45 98 104 134 215 135 l68 0 -3 118 -3 117 -45 2
c-25 1 -66 -4 -91 -12z"/>
<path d="M20757 1479 c-65 -15 -133 -56 -179 -108 l-46 -51 -7 76 -7 75 -106
-3 c-59 -2 -106 -6 -104 -10 1 -5 2 -228 2 -498 l0 -490 125 0 125 0 0 323 c0
319 0 322 24 374 35 75 91 113 165 113 70 0 112 -24 143 -82 22 -42 23 -51 26
-385 l3 -343 124 0 125 0 0 325 c0 354 2 369 58 428 40 42 75 57 133 57 68 0
111 -27 141 -88 22 -46 23 -55 26 -384 l3 -338 124 0 125 0 0 333 c0 359 -7
423 -53 513 -32 63 -89 117 -152 146 -40 18 -67 23 -135 23 -74 0 -93 -4 -145
-29 -33 -17 -85 -55 -117 -87 l-58 -57 -20 34 c-70 112 -207 165 -343 133z"/>
<path d="M22290 1484 c-85 -15 -171 -40 -212 -60 l-47 -24 16 -52 c9 -29 19
-64 23 -78 8 -29 3 -29 95 7 59 22 86 27 170 27 83 1 106 -2 135 -19 38 -22
80 -93 80 -136 0 -26 0 -26 -98 -32 -238 -16 -394 -92 -459 -225 -24 -49 -28
-69 -28 -142 0 -100 20 -153 80 -212 66 -65 115 -83 230 -83 89 0 107 3 160
28 33 15 76 44 96 64 41 39 40 39 54 -39 l6 -38 115 0 c90 0 113 3 107 13 -4
6 -10 170 -14 362 -5 289 -9 359 -23 402 -32 99 -122 189 -219 218 -51 16
-218 28 -267 19z m265 -619 c0 -108 -20 -154 -83 -199 -53 -37 -141 -47 -191
-22 -64 33 -91 128 -56 195 38 75 156 122 290 117 l40 -1 0 -90z"/>
<path d="M24613 1480 c-165 -30 -309 -136 -374 -274 -56 -120 -71 -244 -44
-371 41 -194 167 -325 357 -370 80 -19 213 -19 303 0 96 20 127 34 121 54 -3
9 -10 45 -17 81 -6 36 -15 68 -19 73 -3 4 -35 0 -70 -9 -43 -11 -89 -15 -140
-12 -128 8 -208 60 -259 168 -22 47 -26 69 -26 150 0 81 4 103 26 150 30 64
75 112 133 142 57 29 180 36 265 14 35 -9 65 -15 66 -14 10 14 42 175 36 181
-31 31 -258 55 -358 37z"/>
<path d="M25358 1474 c-79 -14 -208 -60 -208 -74 0 -10 41 -142 47 -152 2 -5
22 1 43 12 61 31 167 52 240 48 113 -7 171 -52 186 -144 l6 -41 -99 -6 c-254
-17 -430 -112 -479 -259 -25 -77 -16 -188 22 -257 95 -175 369 -204 532 -57
l41 37 6 -38 c4 -21 7 -45 8 -53 2 -12 23 -16 112 -18 l110 -3 -3 333 c-3 350
-10 416 -52 499 -80 156 -263 218 -512 173z m312 -611 c0 -84 -3 -102 -24
-138 -63 -107 -244 -129 -299 -36 -23 39 -22 117 2 161 32 61 145 104 284 109
l37 1 0 -97z"/>
<path d="M26413 1480 c-148 -31 -247 -122 -274 -248 -30 -146 58 -267 247
-338 170 -64 214 -117 169 -203 -38 -74 -221 -79 -356 -10 -23 11 -42 19 -43
17 -4 -5 -46 -165 -46 -174 0 -9 47 -29 125 -56 26 -8 88 -13 175 -13 117 1
143 4 193 24 77 30 135 76 172 136 28 45 30 55 30 144 0 109 -10 136 -75 201
-44 44 -97 73 -216 119 -76 30 -124 65 -137 103 -3 9 -1 33 4 53 21 76 147 95
285 44 31 -12 57 -19 59 -17 9 10 45 160 40 168 -22 36 -260 70 -352 50z"/>
<path d="M23740 970 l0 -500 125 0 125 0 0 500 0 500 -125 0 -125 0 0 -500z"/>
</g>
</svg>
