<?xml version="1.0" encoding="UTF-8"?>
<svg id="Capa_2" data-name="Capa 2" xmlns="http://www.w3.org/2000/svg" xmlns:xlink="http://www.w3.org/1999/xlink" viewBox="0 0 376.370535039809511 949.584905660378354">
  <defs>
    <linearGradient id="Degradado_sin_nombre_9" data-name="Degradado sin nombre 9" x1="-130.737019658983627" y1="761.982715968162665" x2="-157.651582609105787" y2="1158.774413506923793" gradientTransform="translate(306.36309814453125 -101.063301086425781)" gradientUnits="userSpaceOnUse">
      <stop offset="0" stop-color="#fff"/>
      <stop offset=".08539903249927" stop-color="#f6f6f6"/>
      <stop offset=".21966451161804" stop-color="#e0e0e0"/>
      <stop offset=".385997642708353" stop-color="#bbb"/>
      <stop offset=".577984903893844" stop-color="#888"/>
      <stop offset=".789058563897473" stop-color="#474747"/>
      <stop offset="1" stop-color="#000"/>
    </linearGradient>
    <mask id="mask" x="0" y="1.985748398958094" width="376.370535039809511" height="947.562415667240202" maskUnits="userSpaceOnUse">
      <rect y="1.985748398958094" width="376.370109461499851" height="947.562415667240202" style="fill: url(#Degradado_sin_nombre_9);"/>
    </mask>
  </defs>
  <g id="Capa_1-2" data-name="Capa 1">
    <g>
      <rect width="376.370535039809511" height="948.766766822409409" style="fill: #498eee;"/>
      <polygon points="31.500171702051375 615.452415081128493 0 633.82356681966121 0 663.629440336044354 31.500171702051375 682.001514160920124 31.500171702051375 615.452415081128493" style="fill: #7cbbf6;"/>
      <polygon points="0 700.372665899452841 31.500171702051375 682.001514160920124 0 663.629440336044354 0 700.372665899452841" style="fill: #5ba2f1;"/>
      <polygon points="31.500171702051375 682.001514160920124 0 700.372665899452841 0 730.178042907808049 31.500171702051375 748.550613240709936 31.500171702051375 682.001514160920124" style="fill: #418be7;"/>
      <polygon points="0 766.921268471214717 31.500171702051375 748.550613240709936 0 730.178042907808049 0 766.921268471214717" style="fill: #2f79e3;"/>
      <polygon points="31.500171702051375 748.550613240709936 0 766.921268471214717 0 796.728489652252392 31.500171702051375 815.099641390786928 31.500171702051375 748.550613240709936" style="fill: #2167dc;"/>
      <polygon points="0 833.470332086148119 31.500171702051375 815.099641390786928 0 796.728489652252392 0 833.470332086148119" style="fill: #1f62dc;"/>
      <polygon points="31.500171702051375 815.099641390786928 0 833.470332086148119 0 863.276205602533082 31.500171702051375 881.648243962546985 31.500171702051375 815.099641390786928" style="fill: #1652d3;"/>
      <polygon points="0 900.019395701079702 31.500171702051375 881.648243962546985 0 863.276205602533082 0 900.019395701079702" style="fill: #1149d0;"/>
      <polygon points="31.500171702051375 881.648243962546985 0 900.019395701079702 0 929.826191303807718 31.500171702051375 948.197343042340435 31.500171702051375 881.648243962546985" style="fill: #0c3dc7;"/>
      <polygon points="30.481762803915444 948.791875942755723 31.500171702051375 948.197343042340435 0 929.826191303807718 0 948.721690986307294 30.481762803915444 948.791875942755723" style="fill: #0c3fc7;"/>
      <polygon points="31.500171702051375 682.001514160920124 88.554334945364644 648.726539042714649 31.500171702051375 615.452415081128493 31.500171702051375 682.001514160920124" style="fill: #70aef3;"/>
      <polygon points="88.554334945364644 648.726539042714649 31.500171702051375 682.001514160920124 88.554334945364644 715.275141614474705 88.554334945364644 648.726539042714649" style="fill: #529bee;"/>
      <polygon points="31.500171702051375 748.550613240709936 88.554334945364644 715.275141614474705 31.500171702051375 682.001514160920124 31.500171702051375 748.550613240709936" style="fill: #428dea;"/>
      <polygon points="88.554334945364644 715.275141614474705 31.500171702051375 748.550613240709936 88.554334945364644 781.82416976454806 88.554334945364644 715.275141614474705" style="fill: #3882e7;"/>
      <polygon points="31.500171702051375 815.099641390786928 88.554334945364644 781.82416976454806 31.500171702051375 748.550613240709936 31.500171702051375 815.099641390786928" style="fill: #1f64da;"/>
      <polygon points="88.554334945364644 781.82416976454806 31.500171702051375 815.099641390786928 88.554334945364644 848.37326884434151 88.554334945364644 781.82416976454806" style="fill: #1552ce;"/>
      <polygon points="31.500171702051375 881.648243962546985 88.554334945364644 848.37326884434151 31.500171702051375 815.099641390786928 31.500171702051375 881.648243962546985" style="fill: #134dce;"/>
      <polygon points="88.554334945364644 848.37326884434151 31.500171702051375 881.648243962546985 88.554334945364644 914.922332459274912 88.554334945364644 848.37326884434151" style="fill: #0a3bc0;"/>
      <polygon points="31.500171702051375 948.197343042340435 88.554334945364644 914.922332459274912 31.500171702051375 881.648243962546985 31.500171702051375 948.197343042340435" style="fill: #0836be;"/>
      <polygon points="88.554334945364644 914.922332459274912 31.500171702051375 948.197343042340435 32.526666588097214 948.79698288248801 88.554334945364644 948.92479823521353 88.554334945364644 914.922332459274912" style="fill: #0831b9;"/>
      <polygon points="145.608072610369163 615.452415081128493 88.554334945364644 648.726539042714649 145.608072610369163 682.001514160920124 145.608072610369163 615.452415081128493" style="fill: #64a4ef;"/>
      <polygon points="88.554334945364644 715.275141614474705 145.608072610369163 682.001514160920124 88.554334945364644 648.726539042714649 88.554334945364644 715.275141614474705" style="fill: #549bee;"/>
      <polygon points="145.608072610369163 682.001514160920124 88.554334945364644 715.275141614474705 145.608072610369163 748.550613240709936 145.608072610369163 682.001514160920124" style="fill: #4288e7;"/>
      <polygon points="88.554334945364644 781.82416976454806 145.608072610369163 748.550613240709936 88.554334945364644 715.275141614474705 88.554334945364644 781.82416976454806" style="fill: #3880e5;"/>
      <polygon points="145.608072610369163 748.550613240709936 88.554334945364644 781.82416976454806 145.608072610369163 815.099641390786928 145.608072610369163 748.550613240709936" style="fill: #1c5bd3;"/>
      <polygon points="88.554334945364644 848.37326884434151 145.608072610369163 815.099641390786928 88.554334945364644 781.82416976454806 88.554334945364644 848.37326884434151" style="fill: #1a59d3;"/>
      <polygon points="145.608072610369163 815.099641390786928 88.554334945364644 848.37326884434151 145.608072610369163 881.648243962546985 145.608072610369163 815.099641390786928" style="fill: #1146c7;"/>
      <polygon points="88.554334945364644 914.922332459274912 145.608072610369163 881.648243962546985 88.554334945364644 848.37326884434151 88.554334945364644 914.922332459274912" style="fill: #0c3dc2;"/>
      <polygon points="145.608072610369163 881.648243962546985 88.554334945364644 914.922332459274912 145.608072610369163 948.197343042340435 145.608072610369163 881.648243962546985" style="fill: #0c3abe;"/>
      <polygon points="144.142806485718211 949.052649052800916 145.608072610369163 948.197343042340435 88.554334945364644 914.922332459274912 88.554334945364644 948.92479823521353 144.142806485718211 949.052649052800916" style="fill: #072db2;"/>
      <polygon points="145.608072610369163 682.001514160920124 202.659398664941364 648.726539042714649 145.608072610369163 615.452415081128493 145.608072610369163 682.001514160920124" style="fill: #5e9fec;"/>
      <polygon points="202.659398664941364 648.726539042714649 145.608072610369163 682.001514160920124 202.659398664941364 715.275141614474705 202.659398664941364 648.726539042714649" style="fill: #5094e7;"/>
      <polygon points="145.608072610369163 748.550613240709936 202.659398664941364 715.275141614474705 145.608072610369163 682.001514160920124 145.608072610369163 748.550613240709936" style="fill: #3b80e1;"/>
      <polygon points="202.659398664941364 715.275141614474705 145.608072610369163 748.550613240709936 202.659398664941364 781.82416976454806 202.659398664941364 715.275141614474705" style="fill: #3174dc;"/>
      <polygon points="145.608072610369163 815.099641390786928 202.659398664941364 781.82416976454806 145.608072610369163 748.550613240709936 145.608072610369163 815.099641390786928" style="fill: #1f5dd3;"/>
      <polygon points="202.659398664941364 781.82416976454806 145.608072610369163 815.099641390786928 202.659398664941364 848.37326884434151 202.659398664941364 781.82416976454806" style="fill: #164dc7;"/>
      <polygon points="145.608072610369163 881.648243962546985 202.659398664941364 848.37326884434151 145.608072610369163 815.099641390786928 145.608072610369163 881.648243962546985" style="fill: #0f42c2;"/>
      <polygon points="202.659398664941364 848.37326884434151 145.608072610369163 881.648243962546985 202.659398664941364 914.922332459274912 202.659398664941364 848.37326884434151" style="fill: #0c38b9;"/>
      <polygon points="145.608072610369163 948.197343042340435 202.659398664941364 914.922332459274912 145.608072610369163 881.648243962546985 145.608072610369163 948.197343042340435" style="fill: #0f3dc2;"/>
      <polygon points="202.659398664941364 914.922332459274912 145.608072610369163 948.197343042340435 147.08397819279071 949.059139122040506 202.659398664941364 949.186989939627892 202.659398664941364 914.922332459274912" style="fill: #0a31b2;"/>
      <polygon points="259.71682467530718 615.452415081128493 202.659398664941364 648.726539042714649 259.71682467530718 682.001514160920124 259.71682467530718 615.452415081128493" style="fill: #9bc9fa;"/>
      <polygon points="202.659398664941364 715.275141614474705 259.71682467530718 682.001514160920124 202.659398664941364 648.726539042714649 202.659398664941364 715.275141614474705" style="fill: #79b0f1;"/>
      <polygon points="259.71682467530718 682.001514160920124 202.659398664941364 715.275141614474705 259.71682467530718 748.550613240709936 259.71682467530718 682.001514160920124" style="fill: #6ba4ee;"/>
      <polygon points="202.659398664941364 781.82416976454806 259.71682467530718 748.550613240709936 202.659398664941364 715.275141614474705 202.659398664941364 781.82416976454806" style="fill: #4484e3;"/>
      <polygon points="259.71682467530718 748.550613240709936 202.659398664941364 781.82416976454806 259.71682467530718 815.099641390786928 259.71682467530718 748.550613240709936" style="fill: #3675dc;"/>
      <polygon points="202.659398664941364 848.37326884434151 259.71682467530718 815.099641390786928 202.659398664941364 781.82416976454806 202.659398664941364 848.37326884434151" style="fill: #1c56cb;"/>
      <polygon points="259.71682467530718 815.099641390786928 202.659398664941364 848.37326884434151 259.71682467530718 881.648243962546985 259.71682467530718 815.099641390786928" style="fill: #1344be;"/>
      <polygon points="202.659398664941364 914.922332459274912 259.71682467530718 881.648243962546985 202.659398664941364 848.37326884434151 202.659398664941364 914.922332459274912" style="fill: #0a34b0;"/>
      <polygon points="259.71682467530718 881.648243962546985 202.659398664941364 914.922332459274912 259.71682467530718 948.197343042340435 259.71682467530718 881.648243962546985" style="fill: #082da9;"/>
      <polygon points="257.804843183582307 949.31342216284429 259.71682467530718 948.197343042340435 202.659398664941364 914.922332459274912 202.659398664941364 949.186989939627892 257.804843183582307 949.31342216284429" style="fill: #0528a4;"/>
      <polygon points="259.71682467530718 682.001514160920124 316.769569324250369 648.726539042714649 259.71682467530718 615.452415081128493 259.71682467530718 682.001514160920124" style="fill: #a4cefa;"/>
      <polygon points="316.769569324250369 648.726539042714649 259.71682467530718 682.001514160920124 316.769569324250369 715.275141614474705 316.769569324250369 648.726539042714649" style="fill: #a0c9f8;"/>
      <polygon points="259.71682467530718 748.550613240709936 316.769569324250369 715.275141614474705 259.71682467530718 682.001514160920124 259.71682467530718 748.550613240709936" style="fill: #7baeee;"/>
      <polygon points="316.769569324250369 715.275141614474705 259.71682467530718 748.550613240709936 316.769569324250369 781.82416976454806 316.769569324250369 715.275141614474705" style="fill: #6ba0ea;"/>
      <polygon points="259.71682467530718 815.099641390786928 316.769569324250369 781.82416976454806 259.71682467530718 748.550613240709936 259.71682467530718 815.099641390786928" style="fill: #4f88e5;"/>
      <polygon points="316.769569324250369 781.82416976454806 259.71682467530718 815.099641390786928 316.769569324250369 848.37326884434151 316.769569324250369 781.82416976454806" style="fill: #366dd3;"/>
      <polygon points="259.71682467530718 881.648243962546985 316.769569324250369 848.37326884434151 259.71682467530718 815.099641390786928 259.71682467530718 881.648243962546985" style="fill: #1c4fc2;"/>
      <polygon points="316.769569324250369 848.37326884434151 259.71682467530718 881.648243962546985 316.769569324250369 914.922332459274912 316.769569324250369 848.37326884434151" style="fill: #1a49c0;"/>
      <polygon points="259.71682467530718 948.197343042340435 316.769569324250369 914.922332459274912 259.71682467530718 881.648243962546985 259.71682467530718 948.197343042340435" style="fill: #0c31ab;"/>
      <polygon points="316.769569324250369 914.922332459274912 259.71682467530718 948.197343042340435 261.644552564536752 949.321330826454869 316.769569324250369 949.447763049671266 316.769569324250369 914.922332459274912" style="fill: #0a2da4;"/>
      <polygon points="316.769569324250369 715.275141614474705 373.821888394883899 682.001514160920124 316.769569324250369 648.726539042714649 316.769569324250369 715.275141614474705" style="fill: #a7ccf6;"/>
      <polygon points="373.821888394883899 682.001514160920124 316.769569324250369 715.275141614474705 373.821888394883899 748.550613240709936 373.821888394883899 682.001514160920124" style="fill: #99c0f3;"/>
      <polygon points="316.769569324250369 781.82416976454806 373.821888394883899 748.550613240709936 316.769569324250369 715.275141614474705 316.769569324250369 781.82416976454806" style="fill: #6e9fe7;"/>
      <polygon points="373.821888394883899 748.550613240709936 316.769569324250369 781.82416976454806 373.821888394883899 815.099641390786928 373.821888394883899 748.550613240709936" style="fill: #5686dc;"/>
      <polygon points="316.769569324250369 848.37326884434151 373.821888394883899 815.099641390786928 316.769569324250369 781.82416976454806 316.769569324250369 848.37326884434151" style="fill: #3f74d5;"/>
      <polygon points="373.821888394883899 815.099641390786928 316.769569324250369 848.37326884434151 373.821888394883899 881.648243962546985 373.821888394883899 815.099641390786928" style="fill: #2f5ec9;"/>
      <polygon points="316.769569324250369 914.922332459274912 373.821888394883899 881.648243962546985 316.769569324250369 848.37326884434151 316.769569324250369 914.922332459274912" style="fill: #2352c5;"/>
      <polygon points="373.821888394883899 881.648243962546985 316.769569324250369 914.922332459274912 373.821888394883899 948.197343042340435 373.821888394883899 881.648243962546985" style="fill: #1841b5;"/>
      <polygon points="371.463191536085105 949.572812143376723 373.821888394883899 948.197343042340435 316.769569324250369 914.922332459274912 316.769569324250369 949.447763049671266 371.463191536085105 949.572812143376723" style="fill: #1136ab;"/>
      <polygon points="373.821888394883899 748.550613240709936 376.370535039809511 747.063997270797699 376.370535039809511 683.487633622806243 373.821888394883899 682.001514160920124 373.821888394883899 748.550613240709936" style="fill: #9dc2f1;"/>
      <polygon points="373.821888394883899 815.099641390786928 376.370535039809511 813.613096350587512 376.370535039809511 750.036661772877778 373.821888394883899 748.550613240709936 373.821888394883899 815.099641390786928" style="fill: #628ddc;"/>
      <polygon points="376.370535039809511 813.613096350587512 373.821888394883899 815.099641390786928 376.370535039809511 816.585760852671228 376.370535039809511 813.613096350587512" style="fill: #4470cc;"/>
      <polygon points="373.821888394883899 881.648243962546985 376.370535039809511 880.162159965520914 376.370535039809511 816.585760852671228 373.821888394883899 815.099641390786928 373.821888394883899 881.648243962546985" style="fill: #2b56be;"/>
      <polygon points="376.370535039809511 880.162159965520914 373.821888394883899 881.648243962546985 376.370535039809511 883.134824467604631 376.370535039809511 880.162159965520914" style="fill: #1c44ae;"/>
      <polygon points="373.821888394883899 948.197343042340435 376.370535039809511 946.711223580456135 376.370535039809511 883.134824467604631 373.821888394883899 881.648243962546985 373.821888394883899 948.197343042340435" style="fill: #163da9;"/>
      <polygon points="376.370535039809511 946.711223580456135 373.821888394883899 948.197343042340435 376.199026980490999 949.584905660378354 376.370535039809511 949.584905660378354 376.370535039809511 946.711223580456135" style="fill: #163ba9;"/>
      <polygon points="31.500171702051375 615.452415081128493 0 633.82356681966121 0 663.629440336044354 31.500171702051375 682.001514160920124 31.500171702051375 615.452415081128493" style="fill: #7cbbf6; opacity: .759999990463257;"/>
      <polygon points="0 700.372665899452841 31.500171702051375 682.001514160920124 0 663.629440336044354 0 700.372665899452841" style="fill: #5ba2f1; opacity: .759999990463257;"/>
      <polygon points="31.500171702051375 682.001514160920124 0 700.372665899452841 0 730.178042907808049 31.500171702051375 748.550613240709936 31.500171702051375 682.001514160920124" style="fill: #418be7; opacity: .759999990463257;"/>
      <polygon points="0 766.921268471214717 31.500171702051375 748.550613240709936 0 730.178042907808049 0 766.921268471214717" style="fill: #2f79e3; opacity: .759999990463257;"/>
      <polygon points="31.500171702051375 748.550613240709936 0 766.921268471214717 0 796.728489652252392 31.500171702051375 815.099641390786928 31.500171702051375 748.550613240709936" style="fill: #2167dc; opacity: .759999990463257;"/>
      <polygon points="0 833.470332086148119 31.500171702051375 815.099641390786928 0 796.728489652252392 0 833.470332086148119" style="fill: #1f62dc; opacity: .759999990463257;"/>
      <polygon points="31.500171702051375 815.099641390786928 0 833.470332086148119 0 863.276205602533082 31.500171702051375 881.648243962546985 31.500171702051375 815.099641390786928" style="fill: #1652d3; opacity: .759999990463257;"/>
      <polygon points="0 900.019395701079702 31.500171702051375 881.648243962546985 0 863.276205602533082 0 900.019395701079702" style="fill: #1149d0; opacity: .759999990463257;"/>
      <polygon points="31.500171702051375 881.648243962546985 0 900.019395701079702 0 929.826191303807718 31.500171702051375 948.197343042340435 31.500171702051375 881.648243962546985" style="fill: #0c3dc7; opacity: .759999990463257;"/>
      <polygon points="30.481762803915444 948.791875942755723 31.500171702051375 948.197343042340435 0 929.826191303807718 0 948.721690986307294 30.481762803915444 948.791875942755723" style="fill: #0c3fc7; opacity: .759999990463257;"/>
      <polygon points="31.500171702051375 682.001514160920124 88.554334945364644 648.726539042714649 31.500171702051375 615.452415081128493 31.500171702051375 682.001514160920124" style="fill: #70aef3; opacity: .759999990463257;"/>
      <polygon points="88.554334945364644 648.726539042714649 31.500171702051375 682.001514160920124 88.554334945364644 715.275141614474705 88.554334945364644 648.726539042714649" style="fill: #529bee; opacity: .759999990463257;"/>
      <polygon points="31.500171702051375 748.550613240709936 88.554334945364644 715.275141614474705 31.500171702051375 682.001514160920124 31.500171702051375 748.550613240709936" style="fill: #428dea; opacity: .759999990463257;"/>
      <polygon points="88.554334945364644 715.275141614474705 31.500171702051375 748.550613240709936 88.554334945364644 781.82416976454806 88.554334945364644 715.275141614474705" style="fill: #3882e7; opacity: .759999990463257;"/>
      <polygon points="31.500171702051375 815.099641390786928 88.554334945364644 781.82416976454806 31.500171702051375 748.550613240709936 31.500171702051375 815.099641390786928" style="fill: #1f64da; opacity: .759999990463257;"/>
      <polygon points="88.554334945364644 781.82416976454806 31.500171702051375 815.099641390786928 88.554334945364644 848.37326884434151 88.554334945364644 781.82416976454806" style="fill: #1552ce; opacity: .759999990463257;"/>
      <polygon points="31.500171702051375 881.648243962546985 88.554334945364644 848.37326884434151 31.500171702051375 815.099641390786928 31.500171702051375 881.648243962546985" style="fill: #134dce; opacity: .759999990463257;"/>
      <polygon points="88.554334945364644 848.37326884434151 31.500171702051375 881.648243962546985 88.554334945364644 914.922332459274912 88.554334945364644 848.37326884434151" style="fill: #0a3bc0; opacity: .759999990463257;"/>
      <polygon points="31.500171702051375 948.197343042340435 88.554334945364644 914.922332459274912 31.500171702051375 881.648243962546985 31.500171702051375 948.197343042340435" style="fill: #0836be; opacity: .759999990463257;"/>
      <polygon points="88.554334945364644 914.922332459274912 31.500171702051375 948.197343042340435 32.526666588097214 948.79698288248801 88.554334945364644 948.92479823521353 88.554334945364644 914.922332459274912" style="fill: #0831b9; opacity: .759999990463257;"/>
      <polygon points="145.608072610369163 615.452415081128493 88.554334945364644 648.726539042714649 145.608072610369163 682.001514160920124 145.608072610369163 615.452415081128493" style="fill: #64a4ef; opacity: .759999990463257;"/>
      <polygon points="88.554334945364644 715.275141614474705 145.608072610369163 682.001514160920124 88.554334945364644 648.726539042714649 88.554334945364644 715.275141614474705" style="fill: #549bee; opacity: .759999990463257;"/>
      <polygon points="145.608072610369163 682.001514160920124 88.554334945364644 715.275141614474705 145.608072610369163 748.550613240709936 145.608072610369163 682.001514160920124" style="fill: #4288e7; opacity: .759999990463257;"/>
      <polygon points="88.554334945364644 781.82416976454806 145.608072610369163 748.550613240709936 88.554334945364644 715.275141614474705 88.554334945364644 781.82416976454806" style="fill: #3880e5; opacity: .759999990463257;"/>
      <polygon points="145.608072610369163 748.550613240709936 88.554334945364644 781.82416976454806 145.608072610369163 815.099641390786928 145.608072610369163 748.550613240709936" style="fill: #1c5bd3; opacity: .759999990463257;"/>
      <polygon points="88.554334945364644 848.37326884434151 145.608072610369163 815.099641390786928 88.554334945364644 781.82416976454806 88.554334945364644 848.37326884434151" style="fill: #1a59d3; opacity: .759999990463257;"/>
      <polygon points="145.608072610369163 815.099641390786928 88.554334945364644 848.37326884434151 145.608072610369163 881.648243962546985 145.608072610369163 815.099641390786928" style="fill: #1146c7; opacity: .759999990463257;"/>
      <polygon points="88.554334945364644 914.922332459274912 145.608072610369163 881.648243962546985 88.554334945364644 848.37326884434151 88.554334945364644 914.922332459274912" style="fill: #0c3dc2; opacity: .759999990463257;"/>
      <polygon points="145.608072610369163 881.648243962546985 88.554334945364644 914.922332459274912 145.608072610369163 948.197343042340435 145.608072610369163 881.648243962546985" style="fill: #0c3abe; opacity: .759999990463257;"/>
      <polygon points="144.142806485718211 949.052649052800916 145.608072610369163 948.197343042340435 88.554334945364644 914.922332459274912 88.554334945364644 948.92479823521353 144.142806485718211 949.052649052800916" style="fill: #072db2; opacity: .759999990463257;"/>
      <polygon points="145.608072610369163 682.001514160920124 202.659398664941364 648.726539042714649 145.608072610369163 615.452415081128493 145.608072610369163 682.001514160920124" style="fill: #5e9fec; opacity: .759999990463257;"/>
      <polygon points="202.659398664941364 648.726539042714649 145.608072610369163 682.001514160920124 202.659398664941364 715.275141614474705 202.659398664941364 648.726539042714649" style="fill: #5094e7; opacity: .759999990463257;"/>
      <polygon points="145.608072610369163 748.550613240709936 202.659398664941364 715.275141614474705 145.608072610369163 682.001514160920124 145.608072610369163 748.550613240709936" style="fill: #3b80e1; opacity: .759999990463257;"/>
      <polygon points="202.659398664941364 715.275141614474705 145.608072610369163 748.550613240709936 202.659398664941364 781.82416976454806 202.659398664941364 715.275141614474705" style="fill: #3174dc; opacity: .759999990463257;"/>
      <polygon points="145.608072610369163 815.099641390786928 202.659398664941364 781.82416976454806 145.608072610369163 748.550613240709936 145.608072610369163 815.099641390786928" style="fill: #1f5dd3; opacity: .759999990463257;"/>
      <polygon points="202.659398664941364 781.82416976454806 145.608072610369163 815.099641390786928 202.659398664941364 848.37326884434151 202.659398664941364 781.82416976454806" style="fill: #164dc7; opacity: .759999990463257;"/>
      <polygon points="145.608072610369163 881.648243962546985 202.659398664941364 848.37326884434151 145.608072610369163 815.099641390786928 145.608072610369163 881.648243962546985" style="fill: #0f42c2; opacity: .759999990463257;"/>
      <polygon points="202.659398664941364 848.37326884434151 145.608072610369163 881.648243962546985 202.659398664941364 914.922332459274912 202.659398664941364 848.37326884434151" style="fill: #0c38b9; opacity: .759999990463257;"/>
      <polygon points="145.608072610369163 948.197343042340435 202.659398664941364 914.922332459274912 145.608072610369163 881.648243962546985 145.608072610369163 948.197343042340435" style="fill: #0f3dc2; opacity: .759999990463257;"/>
      <polygon points="202.659398664941364 914.922332459274912 145.608072610369163 948.197343042340435 147.08397819279071 949.059139122040506 202.659398664941364 949.186989939627892 202.659398664941364 914.922332459274912" style="fill: #0a31b2; opacity: .759999990463257;"/>
      <polygon points="259.71682467530718 615.452415081128493 202.659398664941364 648.726539042714649 259.71682467530718 682.001514160920124 259.71682467530718 615.452415081128493" style="fill: #9bc9fa; opacity: .759999990463257;"/>
      <polygon points="202.659398664941364 715.275141614474705 259.71682467530718 682.001514160920124 202.659398664941364 648.726539042714649 202.659398664941364 715.275141614474705" style="fill: #79b0f1; opacity: .759999990463257;"/>
      <polygon points="259.71682467530718 682.001514160920124 202.659398664941364 715.275141614474705 259.71682467530718 748.550613240709936 259.71682467530718 682.001514160920124" style="fill: #6ba4ee; opacity: .759999990463257;"/>
      <polygon points="202.659398664941364 781.82416976454806 259.71682467530718 748.550613240709936 202.659398664941364 715.275141614474705 202.659398664941364 781.82416976454806" style="fill: #4484e3; opacity: .759999990463257;"/>
      <polygon points="259.71682467530718 748.550613240709936 202.659398664941364 781.82416976454806 259.71682467530718 815.099641390786928 259.71682467530718 748.550613240709936" style="fill: #3675dc; opacity: .759999990463257;"/>
      <polygon points="202.659398664941364 848.37326884434151 259.71682467530718 815.099641390786928 202.659398664941364 781.82416976454806 202.659398664941364 848.37326884434151" style="fill: #1c56cb; opacity: .759999990463257;"/>
      <polygon points="259.71682467530718 815.099641390786928 202.659398664941364 848.37326884434151 259.71682467530718 881.648243962546985 259.71682467530718 815.099641390786928" style="fill: #1344be; opacity: .759999990463257;"/>
      <polygon points="202.659398664941364 914.922332459274912 259.71682467530718 881.648243962546985 202.659398664941364 848.37326884434151 202.659398664941364 914.922332459274912" style="fill: #0a34b0; opacity: .759999990463257;"/>
      <polygon points="259.71682467530718 881.648243962546985 202.659398664941364 914.922332459274912 259.71682467530718 948.197343042340435 259.71682467530718 881.648243962546985" style="fill: #082da9; opacity: .759999990463257;"/>
      <polygon points="257.804843183582307 949.31342216284429 259.71682467530718 948.197343042340435 202.659398664941364 914.922332459274912 202.659398664941364 949.186989939627892 257.804843183582307 949.31342216284429" style="fill: #0528a4; opacity: .759999990463257;"/>
      <polygon points="259.71682467530718 682.001514160920124 316.769569324250369 648.726539042714649 259.71682467530718 615.452415081128493 259.71682467530718 682.001514160920124" style="fill: #a4cefa; opacity: .759999990463257;"/>
      <polygon points="316.769569324250369 648.726539042714649 259.71682467530718 682.001514160920124 316.769569324250369 715.275141614474705 316.769569324250369 648.726539042714649" style="fill: #a0c9f8; opacity: .759999990463257;"/>
      <polygon points="259.71682467530718 748.550613240709936 316.769569324250369 715.275141614474705 259.71682467530718 682.001514160920124 259.71682467530718 748.550613240709936" style="fill: #7baeee; opacity: .759999990463257;"/>
      <polygon points="316.769569324250369 715.275141614474705 259.71682467530718 748.550613240709936 316.769569324250369 781.82416976454806 316.769569324250369 715.275141614474705" style="fill: #6ba0ea; opacity: .759999990463257;"/>
      <polygon points="259.71682467530718 815.099641390786928 316.769569324250369 781.82416976454806 259.71682467530718 748.550613240709936 259.71682467530718 815.099641390786928" style="fill: #4f88e5; opacity: .759999990463257;"/>
      <polygon points="316.769569324250369 781.82416976454806 259.71682467530718 815.099641390786928 316.769569324250369 848.37326884434151 316.769569324250369 781.82416976454806" style="fill: #366dd3; opacity: .759999990463257;"/>
      <polygon points="259.71682467530718 881.648243962546985 316.769569324250369 848.37326884434151 259.71682467530718 815.099641390786928 259.71682467530718 881.648243962546985" style="fill: #1c4fc2; opacity: .759999990463257;"/>
      <polygon points="316.769569324250369 848.37326884434151 259.71682467530718 881.648243962546985 316.769569324250369 914.922332459274912 316.769569324250369 848.37326884434151" style="fill: #1a49c0; opacity: .759999990463257;"/>
      <polygon points="259.71682467530718 948.197343042340435 316.769569324250369 914.922332459274912 259.71682467530718 881.648243962546985 259.71682467530718 948.197343042340435" style="fill: #0c31ab; opacity: .759999990463257;"/>
      <polygon points="316.769569324250369 914.922332459274912 259.71682467530718 948.197343042340435 261.644552564536752 949.321330826454869 316.769569324250369 949.447763049671266 316.769569324250369 914.922332459274912" style="fill: #0a2da4; opacity: .759999990463257;"/>
      <polygon points="316.769569324250369 715.275141614474705 373.821888394883899 682.001514160920124 316.769569324250369 648.726539042714649 316.769569324250369 715.275141614474705" style="fill: #a7ccf6; opacity: .759999990463257;"/>
      <polygon points="373.821888394883899 682.001514160920124 316.769569324250369 715.275141614474705 373.821888394883899 748.550613240709936 373.821888394883899 682.001514160920124" style="fill: #99c0f3; opacity: .759999990463257;"/>
      <polygon points="316.769569324250369 781.82416976454806 373.821888394883899 748.550613240709936 316.769569324250369 715.275141614474705 316.769569324250369 781.82416976454806" style="fill: #6e9fe7; opacity: .759999990463257;"/>
      <polygon points="373.821888394883899 748.550613240709936 316.769569324250369 781.82416976454806 373.821888394883899 815.099641390786928 373.821888394883899 748.550613240709936" style="fill: #5686dc; opacity: .759999990463257;"/>
      <polygon points="316.769569324250369 848.37326884434151 373.821888394883899 815.099641390786928 316.769569324250369 781.82416976454806 316.769569324250369 848.37326884434151" style="fill: #3f74d5; opacity: .759999990463257;"/>
      <polygon points="373.821888394883899 815.099641390786928 316.769569324250369 848.37326884434151 373.821888394883899 881.648243962546985 373.821888394883899 815.099641390786928" style="fill: #2f5ec9; opacity: .759999990463257;"/>
      <polygon points="316.769569324250369 914.922332459274912 373.821888394883899 881.648243962546985 316.769569324250369 848.37326884434151 316.769569324250369 914.922332459274912" style="fill: #2352c5; opacity: .759999990463257;"/>
      <polygon points="373.821888394883899 881.648243962546985 316.769569324250369 914.922332459274912 373.821888394883899 948.197343042340435 373.821888394883899 881.648243962546985" style="fill: #1841b5; opacity: .759999990463257;"/>
      <polygon points="371.463191536085105 949.572812143376723 373.821888394883899 948.197343042340435 316.769569324250369 914.922332459274912 316.769569324250369 949.447763049671266 371.463191536085105 949.572812143376723" style="fill: #1136ab; opacity: .759999990463257;"/>
      <polygon points="373.821888394883899 748.550613240709936 376.370535039809511 747.063997270797699 376.370535039809511 683.487633622806243 373.821888394883899 682.001514160920124 373.821888394883899 748.550613240709936" style="fill: #9dc2f1; opacity: .759999990463257;"/>
      <polygon points="373.821888394883899 815.099641390786928 376.370535039809511 813.613096350587512 376.370535039809511 750.036661772877778 373.821888394883899 748.550613240709936 373.821888394883899 815.099641390786928" style="fill: #628ddc; opacity: .759999990463257;"/>
      <polygon points="376.370535039809511 813.613096350587512 373.821888394883899 815.099641390786928 376.370535039809511 816.585760852671228 376.370535039809511 813.613096350587512" style="fill: #4470cc; opacity: .759999990463257;"/>
      <polygon points="373.821888394883899 881.648243962546985 376.370535039809511 880.162159965520914 376.370535039809511 816.585760852671228 373.821888394883899 815.099641390786928 373.821888394883899 881.648243962546985" style="fill: #2b56be; opacity: .759999990463257;"/>
      <polygon points="376.370535039809511 880.162159965520914 373.821888394883899 881.648243962546985 376.370535039809511 883.134824467604631 376.370535039809511 880.162159965520914" style="fill: #1c44ae; opacity: .759999990463257;"/>
      <polygon points="373.821888394883899 948.197343042340435 376.370535039809511 946.711223580456135 376.370535039809511 883.134824467604631 373.821888394883899 881.648243962546985 373.821888394883899 948.197343042340435" style="fill: #163da9; opacity: .759999990463257;"/>
      <polygon points="376.370535039809511 946.711223580456135 373.821888394883899 948.197343042340435 376.199026980490999 949.584905660378354 376.370535039809511 949.584905660378354 376.370535039809511 946.711223580456135" style="fill: #163ba9; opacity: .759999990463257;"/>
      <g style="mask: url(#mask);">
        <polygon points="0 1.985748398958094 376.370535039809511 1.985748398958094 376.370535039809511 949.548164066198296 0 948.686332521638178 0 1.985748398958094" style="fill: #498eee; fill-rule: evenodd;"/>
      </g>
    </g>
  </g>
</svg>