<?xml version="1.0" encoding="UTF-8"?>
<svg id="Capa_2" data-name="Capa 2" xmlns="http://www.w3.org/2000/svg" viewBox="0 0 340.068999999999505 935.841799999998329">
  <g id="Capa_1-2" data-name="Capa 1">
    <g>
      <rect width="262.565000000000509" height="935.841799999998329" style="fill: #006;"/>
      <path d="m262.564699999998993,550.624499999998079l-24.873099999998885,24.873200000001816M.052700000000186,478.085100000000239l35.024599999998827,35.023699999997916m227.48739999999998-1.966599999999744l-138.602199999999357,138.602200000001176m138.602199999999357-150.220300000000861l-144.411299999999756,144.411000000000058m144.411299999999756-121.827699999999822l-133.119799999998577,133.119199999999182m133.119799999998577-120.231700000000274l-126.675999999999476,126.675699999999779m99.731299999999464-84.101299999998446l-4.427999999999884,4.427999999999884m-.690199999999095.690200000000914l-4.101800000000367,4.101699999999255m-2.071799999999712,2.071899999999005l-4.717099999999846,4.717400000001362m-1.38169999999991,1.38130000000092l-5.7429000000011,5.742699999998877m-2.762099999999919,2.762399999999616l-66.020599999999831,66.020300000000134m-57.306599999999889-94.821700000000419l27.814099999999598,27.812900000000809,27.812900000000809-27.812900000000809-27.812900000000809-27.812999999998283-27.814099999999598,27.812999999998283h0Zm153.609399999999368,361.177999999999884h-1.936599999999089l-19.274999999999636-19.274999999997817,2.071799999999712-2.071800000001531,20.243599999999788,20.243299999998271-1.103800000000774,1.103500000001077h0Zm-193.932799999998679,0h-1.936700000000201l-1.103199999999561-1.103500000001077,35.429399999999077-35.430499999998574,2.072099999999409,2.071800000001531-34.461599999998725,34.46219999999812h0Zm-13.000299999999697,0l40.962299999999232-40.961699999999837-.690200000000914-.690299999998388-41.239799999999377,41.239299999997456.412700000000768.412700000000768h.555000000000291Zm-9.583099999999831,0l45.753999999998996-45.753700000001118-2.072099999999409-2.071799999997893-46.721999999999753,46.721999999997934,1.103499999999258,1.103500000001077h1.936600000000908Zm-13.578800000001138,0l52.542999999999665-52.542699999998149-1.381299999999101-1.38130000000092-53.165800000000672,53.165799999998853.758600000001024.758200000000215h1.245499999999083ZM.000299999999697,928.637899999997899l1.433500000001004,1.433400000001711,53.896499999998923-53.896499999998923-2.762099999999919-2.762400000003254L.000299999999697,925.98070000000007v2.657199999997829H.000299999999697ZM.000299999999697,819.883299999997689v-2.657199999997829l110.420500000000175-110.421099999999569,2.762300000000323,2.762399999999616L1.433800000000701,821.316999999999098.000299999999697,819.883299999997689H.000299999999697ZM.000299999999697,784.885599999997794l.742899999999281.743000000002212,94.250600000001214-94.25-1.381000000001222-1.38130000000092L.000299999999697,783.608899999999267v1.276699999998527H.000299999999697ZM.000299999999697,756.026599999997416l1.088200000000143,1.088500000001659,79.821400000000722-79.82129999999961-2.071900000000824-2.072100000001228L.000299999999697,754.059699999997974v1.966899999999441H.000299999999697ZM.000299999999697,731.471799999999348l.397699999999531.398000000001048,67.544200000000274-67.543700000001991-.690500000000611-.690500000000611L.000299999999697,730.886699999999109v.585100000000239H.000299999999697ZM.000299999999697,705.455999999998312v-1.966700000000856l53.552999999999884-53.552699999996548,2.071500000000015,2.071899999999005L1.08849999999984,706.544499999999971.000299999999697,705.455999999998312H.000299999999697ZM.000299999999697,616.101699999999255v-1.966599999999744l105.932399999999689-105.933000000000902,2.071799999999712,2.072100000001228L1.08849999999984,617.18999999999869.000299999999697,616.101699999999255H.000299999999697ZM.000299999999697,604.482799999997951v-.585100000000239l100.813599999999497-100.813899999997375.690500000000611.690599999998085L.397999999999229,604.880499999999302l-.397699999999531-.39770000000135H.000299999999697ZM.000299999999697,593.517799999997806v-1.966899999999441l94.640300000000934-94.640299999999115,2.071599999999307,2.072100000001228L1.08849999999984,594.606299999999464.000299999999697,593.517799999997806H.000299999999697ZM.000299999999697,580.630099999998492v-1.276699999998527l88.541300000000774-88.541900000000169,1.381599999997889,1.381299999999101L.743199999998978,581.373100000000704.000299999999697,580.630099999998492H.000299999999697ZM.000299999999697,565.001000000000204v-2.657500000001164l80.036799999999857-80.03650000000016,2.762000000000626,2.762100000001737L1.433800000000701,566.434799999999086.000299999999697,565.001000000000204H.000299999999697ZM.000299999999697,477.91189999999915v-.146300000000338l16.289000000000669-16.289000000000669L.000299999999697,445.187299999999595v-.585000000000946l.397699999999531-.397999999999229,16.581500000000233,16.58179999999993,14.444800000001123-14.44419999999991-16.873500000001513-16.873800000001211-13.807600000000093,13.807300000000396L.000299999999697,442.532400000000052v-1.276700000002165l13.168899999999667-13.168899999998757L.000299999999697,414.917600000000675v-1.966700000000856l1.088200000000143-1.088500000001659,14.152500000000146,14.152500000000146,16.873799999999392-16.873499999997875-20.484800000000178-20.485100000001694-10.196199999998498,10.196200000000317L.000299999999697,397.418699999998353v-2.657199999997829l8.867599999998674-8.867000000002008L.000299999999697,377.027099999999336v-1.276700000000346l.742899999999281-.743199999999888,9.506000000001222,9.505699999998797,20.48489999999947-20.485199999999168L.000299999999697,333.294199999999364v-2.657199999999648l1.433500000001004-1.433700000000499,32.062399999998888,32.062400000000707,98.570499999999811-98.570300000000316,2.76260000000002,2.762099999999919-98.570499999999811,98.570199999999204,20.484599999999773,20.485199999999168,98.569900000000416-98.570299999998497,1.38169999999991,1.381099999998696-98.569999999999709,98.570800000000418,16.873499999999694,16.873200000001816,98.570299999999406-98.570300000001225,2.071500000000015,2.071900000000824-98.569999999999709,98.570299999999406,14.44419999999991,14.44419999999991,98.570299999999406-98.569999999999709.690300000000207.690499999999702-98.570299999999406,98.569999999999709,15.386700000000928,15.386199999999917,98.570599999999104-98.569999999999709,2.071500000000015,2.071799999999712-98.570200000000114,98.570300000001225.544499999999971.544799999999668-2.762099999999919,2.762399999999616-.544799999999668-.545099999998456-20.485099999999875,20.484799999997449.545099999999366.545100000001185-1.381400000000212,1.381400000000212-.545099999999366-.545200000000477-16.873499999999694,16.873800000001211.544899999998961.545399999999063-2.071599999999307,2.071599999999307-.545099999999366-.544799999999668-14.444500000001426,14.444500000001426.545100000001185.544499999999971-.690500000000611.690499999998792-.545099999999366-.544800000001487-16.361899999999878,16.362200000001394-2.072100000001228-2.071900000000824,16.361800000000585-16.362399999998161-15.386099999999715-15.386500000000524-16.362199999999575,16.362699999999677-.690500000000611-.690499999998792,16.362100000000282-16.362700000001496-14.443900000000212-14.443900000000212-16.362100000000282,16.362100000000282L.000299999999697,477.91189999999915H.000299999999697ZM.000299999999697,123.91649999999936l80.785099999999147,80.786000000000058-36.26929999999993,36.26929999999993,2.071900000000824,2.071899999999914,36.269500000000335-36.26929999999993,7.927099999998973,7.926800000000185-36.269500000000335,36.269800000000032.690500000000611.690499999999702,36.269500000000335-36.269800000000032,7.404999999999745,7.405499999999847-36.269299999999021,36.269600000000537,2.071599999999307,2.071799999999712,36.269800000000032-36.269800000000032,8.599199999999655,8.59940000000006-36.269900000000234,36.269900000000234,1.381600000000617,1.38130000000001,36.270199999999022-36.269900000000234,10.450799999999617,10.450799999999617-36.269599999998718,36.270199999999932,2.762099999999919,2.762300000000323,174.688099999999395-174.688400000000001v-5.524500000000444l-52.654399999999441,52.654400000000351-10.450999999999112-10.451000000000022,63.105399999998554-63.105499999999665v-2.763200000000325l-64.486999999999171,64.487100000000282-8.599200000000565-8.598899999999958,73.086199999999735-73.086800000000039v-4.143700000000536l-75.15809999999874,75.158300000000054-7.405200000001059-7.404599999999846,82.563299999999799-82.563000000000102v-1.380799999999908l-83.253499999998894,83.253300000000309-7.927400000000489-7.927400000000489,91.180899999999383-91.181499999999687v-4.144000000000233l-93.252699999999095,93.253400000000511L76.51299999999901,23.377299999999195l-2.072099999999409,2.071899999999914,92.799199999999473,92.798899999999776-18.1966999999986,18.196700000000419L56.244199999999182,43.645299999999224l-.690300000000207.690499999999702,92.799000000000888,92.799300000000585-17.096100000000661,17.096300000000156L38.457599999999729,61.431899999999587l-2.072099999999409,2.072099999999409,92.799199999999473,92.799200000000383-19.990799999999581,19.990799999999581L16.395599999999831,83.495099999999184l-1.381600000000617,1.38130000000001,92.798599999999169,92.798899999999776-24.264499999998407,24.264900000000125L1.433800000000701,119.82589999999891.000299999999697,121.259299999998802v2.657200000000557H.000299999999697Zm262.564399999999296,14.831199999999626l-113.774199999999837,113.77390000000014h0l113.774199999999837,113.774099999999635v-31.70719999999983l-82.0666999999994-82.066899999999805h0l82.0666999999994-82.066399999999703v-31.707500000000437h0Zm0,84.97609999999986v57.595800000000054l-28.797699999999168-28.797999999999774,28.797699999999168-28.797800000000279h0Zm0,172.620899999998983v16.446300000001429l-47.367999999998574-47.367500000000291c-23.508600000001024,23.508299999999508-48.469100000000253,48.469300000000658-71.977600000000166,71.977899999999863h0c23.508499999999913,23.508300000001327,48.468999999999141,48.469300000000658,71.977600000000166,71.977300000000469l47.367999999998574-47.367499999999382v16.446899999999914l-47.367799999999988,47.367500000000291-88.423600000000079-88.424200000001292h0l88.423600000000079-88.424199999999473,47.367799999999988,47.367499999998472h0Zm0,170.608500000002095v18.850699999999051l-9.425199999999677-9.425199999999677h0l9.425199999999677-9.425499999999374h0Zm0,33.417399999998452v4.143100000001141l-26.873799999999392-26.873900000000503-.07090000000062-.070499999999811-91.362100000000282-91.362100000000282,2.071600000001126-2.071500000000015,91.362100000000282,91.36200000000099.072500000000218.072299999999814,24.800599999998667,24.800599999998667h0Zm0,12.999100000000908v1.381600000000617l-31.996299999998882-31.996299999998882-.066600000000108-.067500000001019-91.361500000000888-91.361800000000585.689900000001217-.690499999998792,91.361799999998766,91.362099999998463.067700000001423.06710000000021,31.304999999998472,31.305299999999988h0Zm0,9.584200000001147v4.143700000000536l-38.174199999999473-38.174200000001292-.062299999999595-.062300000001414-91.362100000000282-91.361799999998766,2.071900000000824-2.071800000001531,91.361999999999171,91.361700000001292.063799999999901.063799999999901,36.100899999999456,36.100900000001275h0Zm0,13.578499999999622v2.762699999999313l-44.278000000000247-44.277999999998428-.057299999998577-.057300000000396-91.361699999999473-91.361800000002404,1.381299999999101-1.381599999998798,91.362100000000282,91.362100000000282.058099999999286.058700000001409,42.895499999999629,42.895199999999022h0Zm0,14.248400000000402v5.52469999999812l-52.789600000000064-52.789600000000064-.050699999999779-.050999999999476-91.362100000000282-91.362099999998463,2.762099999999919-2.762300000002142,91.362100000000282,91.36200000000099.053200000000288.053299999999581,50.024999999999636,50.025000000001455h0Zm0,15.878799999998591v6.124599999999191l-52.391299999999319,52.391900000002352-55.453900000000431-55.454200000000128h0l55.453900000000431-55.453600000000733,52.391299999999319,52.391299999999319h0Zm0,121.686799999999494v4.289700000001176l-212.103499999999258-212.102900000001682,2.145300000000134-2.144999999998618,65.546899999999368,65.546899999999368.000299999999697.000299999999697,5.808800000000701,5.809000000001106h.000200000000405l5.482200000000375,5.482199999998556.000299999999697.000299999999697,6.443499999999403,6.443699999999808,7.815099999999802,7.814600000001519.000500000000102.000599999999395,118.860399999999572,118.860599999999977h0Zm0,13.048200000001088v1.429799999998068l-217.197299999999814-217.197399999997288.714900000000853-.715200000002369,216.482399999998961,216.482800000001589h0Zm0,9.535400000000664v4.289699999997538l-223.39469999999892-223.395000000000437,2.14469999999892-2.144999999996799,221.25,221.250299999999697h0Zm0,13.602899999998044v2.859599999999773l-229.481299999999464-229.481299999999464,1.429799999999886-1.430000000000291,228.051499999999578,228.051699999999983h0Zm0,14.198500000002241v2.658299999999144l-1.531299999999646,1.53099999999904L24.55370000000039,606.440699999999197l2.85989999999947-2.85989999999947,235.151099999999133,235.15060000000085h0Zm0,41.350699999999051v4.143700000000536l-5.714599999999336-5.714700000000448,2.071799999999712-2.071800000001531,3.642799999999625,3.642800000001444h0Zm0,40.536799999998038l-23.911099999999351-23.911299999999756-.690500000000611.690500000000611,24.601599999999962,24.601900000001478v-1.381100000002334h0Zm-158.758599999999205-60.205299999997806l48.859399999999368,48.859700000000885,48.859099999999671-48.859700000000885-48.859099999999671-48.859599999999773-48.859399999999368,48.859599999999773h0Zm70.913000000000466,75.360499999998865l75.359599999999773-75.360499999998865-97.415500000000975-97.415400000001682-97.415699999999561,97.415400000001682h0l75.359599999999773,75.360499999998865h18.118500000000495l-75.35990000000038-75.360499999998865h0c25.899599999999737-25.899000000001251,53.398200000000543-53.397899999999936,79.297300000001087-79.296900000001187,25.898699999999735,25.899000000001251,53.398400000000038,53.397899999999936,79.296599999999671,79.296900000001187l-75.359599999999773,75.360499999998865h18.119099999999889ZM19.05160000000069,462.85819999999876l14.444299999999203,14.443999999999505,14.444799999999304-14.444499999997788-14.444499999999607-14.444300000001022-14.4445999999989,14.444799999999304h0Zm15.134799999999814,15.134200000000419l15.386199999999008,15.386699999999109,14.444700000000012-14.444499999997788-15.386399999999412-15.386400000001231-14.444499999999607,14.44419999999991h0Zm-17.563799999999901-50.596099999998842l16.873599999998987,16.873999999999796,16.873999999999796-16.873999999999796-16.873999999999796-16.873800000001211-16.873599999998987,16.873800000001211h0Zm18.945699999998396,18.945599999999104l14.443900000000212,14.443900000000212,16.873800000001211-16.873199999999997-14.444200000001729-14.444500000001426-16.873499999999694,16.873800000001211h0Zm15.134200000000419,15.134399999999005l15.386700000000928,15.386500000000524,16.873799999999392-16.873499999999694-15.386500000000524-15.386499999998705-16.873999999999796,16.873499999997875h0Zm-37.691199999999299-74.20129999999881l20.48489999999947,20.485099999999875,20.484800000000178-20.485099999999875-20.484800000000178-20.484900000001289-20.48489999999947,20.484900000001289h0Zm21.86620000000039,21.866400000000795l16.874099999999089,16.873499999997875,20.484800000000178-20.484799999998359-16.874100000000908-16.873800000001211-20.484799999998359,20.485100000001694h0Zm18.945599999999104,18.945399999998699l14.44419999999991,14.443900000000212,20.485200000000987-20.484599999999773-14.444300000001022-14.44419999999991-20.485099999999875,20.48489999999947h0Zm15.134799999999814,15.134700000000521l15.386399999999412,15.386200000000827,20.484900000001289-20.484600000001592-15.386500000000524-15.386399999999412-20.484800000000178,20.484800000000178h0Zm119.993599999999788-265.488100000000486l-17.096899999998641,17.096300000000156-10.451000000000931-10.45049999999992,17.096300000001065-17.096800000000258,10.451599999998507,10.451000000000022h0Zm-11.832899999999427-11.832599999999729l-17.096100000000661,17.096599999999853-8.59939999999915-8.599500000000262,17.096299999999246-17.096599999999853,8.599200000000565,8.599500000000262h0Zm-10.671000000000276-10.671100000000479l-17.096400000000358,17.096100000000661-7.40519999999924-7.404700000000048,17.09690000000046-17.096300000000156,7.404699999999139,7.404899999999543h0Zm-8.09519999999975-8.095699999999852l-17.096900000001369,17.096599999999853-7.927099999998063-7.927399999999579,17.096299999999246-17.096300000000156,7.927700000000186,7.927099999999882h0Zm-7.236899999999878-8.617599999999584l18.196500000000015-18.196500000000015,7.927599999999074,7.927099999999882-18.1966999999986,18.197000000000116-7.927400000000489-7.927599999999984h0Zm8.617899999999281,8.617599999999584l18.196500000000015-18.196500000000015,7.404599999999846,7.405300000000352-18.196399999998903,18.196399999999812-7.404700000000958-7.40520000000015h0Zm9.476200000000972,9.476800000000367l18.197000000000116-18.196800000000621,8.599199999998746,8.599800000000869-18.1966999999986,18.19669999999951-8.599500000000262-8.599699999999757h0Zm9.980799999999363,9.980999999999767l18.197000000000116-18.196700000000419,10.451100000000224,10.450800000000527-18.196700000000419,18.197000000000116-10.451399999999921-10.451100000000224h0Zm-9.40730000000076,30.309500000000298l-19.990499999999884,19.990799999999581-10.450799999998708-10.451100000000224,19.990499999999884-19.990499999999884,10.450799999998708,10.450800000000527h0Zm-11.832699999999022-11.832100000000537l-19.990499999999884,19.990499999999884-8.599099999999453-8.599499999999352,19.990399999998772-19.990499999999884,8.599200000000565,8.599499999999352h0Zm-10.671299999999974-10.671299999999974l-19.990499999999884,19.990499999999884-7.404899999999543-7.405299999999443,19.990499999999884-19.990400000000591,7.404899999999543,7.40520000000015h0Zm-8.095500000000357-8.095800000000054l-19.990399999999681,19.990499999999884-7.927100000000792-7.926799999999275,19.990700000000288-19.990700000000288,7.926800000000185,7.92699999999968h0Zm9.227400000000671,51.971300000000156l-24.264900000000125,24.26510000000053-10.450700000001234-10.451000000000022,24.264500000001135-24.264900000000125,10.451100000000224,10.450799999999617h0Zm-11.832400000001144-11.832400000000234l-24.264599999999518,24.264899999999216-8.599699999999757-8.599199999998746,24.264800000000832-24.265199999999822,8.599499999998443,8.599499999999352h0Zm-10.671299999999974-10.670999999999367l-24.264799999999013,24.264599999999518-7.405600000000049-7.404999999999745,24.26549999999952-24.26509999999962,7.404899999999543,7.405499999999847h0Zm-8.095499999999447-8.096000000000458l-24.264799999999013,24.265400000000227-7.927100000000792-7.927099999999882,24.264900000000125-24.265199999999822,7.92699999999968,7.926899999999478h0Zm53.038000000000466,249.727399999999761l44.349700000000666,44.349500000000262,44.349699999998847-44.349500000000262-44.349699999998847-44.349999999998545-44.349700000000666,44.349999999998545h0ZM10.670700000000579,295.413199999999961l24.407799999999042,24.407399999999143,24.406799999999748-24.407399999999143-24.406799999999748-24.407500000001164-24.407799999999042,24.407500000001164h0ZM.052700000000186,309.053499999999985l35.024599999998827,35.023699999998826,48.663500000000568-48.66399999999885-48.663500000000568-48.663500000000568L.052700000000186,281.773999999999432v9.050699999999779l35.02429999999913-35.023699999999735c12.937400000000707,12.937600000000202,26.674600000000282,26.674599999999373,39.611899999999878,39.612200000000485-12.937299999999595,12.938099999999395-26.674499999999171,26.674799999998868-39.611899999999878,39.612699999999677L.052700000000186,300.002199999998993v9.051300000000992H.052700000000186ZM130.083000000000538,12.28899999999885l11.455999999998312-11.456199999999626h56.252600000001621l11.456300000000738,11.456199999999626-39.582700000001751,39.581900000000132-39.58219999999892-39.581900000000132h0ZM102.199999999998909.832799999999224h14.678400000000693l-11.455700000000434,11.456199999999626h0c20.981499999999869,20.981000000000677,43.259000000000015,43.258700000000317,64.240200000000186,64.239600000000792,20.981499999999869-20.980900000000474,43.259200000000419-43.258600000000115,64.240400000000591-64.239600000000792l-11.455600000001141-11.456199999999626h14.678900000000795l11.455400000000736,11.456199999999626-78.918800000001283,78.918599999999969L90.744699999998375,12.28899999999885h0L102.199999999998909.832799999999224h0ZM.052700000000186,226.012499999998909v-40.542499999999563l20.271999999999025,20.270800000000236L.052700000000186,226.012499999998909H.052700000000186ZM.052700000000186,265.347199999999248l59.606399999998757-59.606399999999667L.052700000000186,146.135099999999511v14.679699999999684l44.927199999999175,44.926000000000386L.052700000000186,250.667999999998756v14.679200000000492H.052700000000186ZM.052700000000186,26.415199999999459V.832799999999224h12.545000000000073l6.518599999999424,6.519100000000435L.052700000000186,26.415199999999459H.052700000000186ZM43.032199999999648.832799999999224h18.119000000000597l6.519199999998818,6.519100000000435L.052700000000186,74.968999999999141v-18.119599999999991L49.550999999999476,7.351899999999659l-6.518799999999828-6.519100000000435h0ZM.052700000000186,549.712100000000646v-14.679300000001604l12.34059999999954-12.340299999999843L.052700000000186,510.352399999999761v-14.678900000000795l27.019599999999627,27.019000000000233L.052700000000186,549.712100000000646H.052700000000186Zm1.165100000000166,92.951399999998102l15.571500000000015,15.572100000001228,15.571899999999005-15.572100000001228-15.571899999999005-15.571599999999307-15.571500000000015,15.571599999999307h0Zm-1.165100000000166,14.311600000000908v-5.775099999998929l16.735800000000381,16.736299999996845c8.253899999998794-8.254399999997986,17.018599999999424-17.018899999999121,25.272499999999127-25.272799999998824-8.253899999999703-8.253899999999703-17.018600000000333-17.018400000000838-25.272499999999127-25.272000000000844L.052700000000186,634.12670000000071v-5.774500000003172l16.735800000000381-16.735699999997451,31.047299999998359,31.046999999998661-31.047299999998359,31.047300000001997L.052700000000186,656.975099999999657H.052700000000186Zm98.585900000000038-184.592500000000655l15.571799999999712,15.571900000000824,15.571599999999307-15.571900000000824-15.571599999999307-15.572099999999409-15.571799999999712,15.572099999999409h0Zm-15.47609999999986,0h0l31.047099999999773-31.04700000000048,31.046999999998661,31.04700000000048-31.046999999998661,31.046199999998862-31.047099999999773-31.046199999998862h0Zm5.774499999999534,0c8.254499999999098,8.254500000000917,17.017499999999927,17.017799999999625,25.272600000000239,25.271800000000439,8.253899999999703-8.254000000000815,17.018299999999726-17.017299999999523,25.271999999999025-25.271800000000439-8.253699999999299-8.254699999999502-17.018099999999322-17.018599999999424-25.271999999999025-25.272500000000946-8.255100000000311,8.253900000001522-17.018100000001141,17.017800000001444-25.272600000000239,25.272500000000946h0Zm93.424300000000585,197.339300000001458l27.813199999998687,27.812999999998283,27.813299999999799-27.812999999998283-27.813299999999799-27.813300000001618-27.813199999998687,27.813300000001618h0Zm-17.327699999999822,0h0c14.742199999998775-14.743000000002212,30.396799999997711-30.396500000002561,45.139499999999316-45.140000000003056,14.742700000000696,14.743500000000495,30.396199999999226,30.397000000000844,45.139699999999721,45.140000000003056-14.743500000000495,14.743299999998271-30.396999999999025,30.396499999998923-45.139699999999721,45.139999999999418-14.74330000000009-14.743500000000495-30.397300000000541-30.396700000001147-45.139499999999316-45.139999999999418h0Zm-106.278200000000652-95.058400000001711h0l55.454200000000128-55.45339999999851,55.453599999998914,55.45339999999851-55.453599999998914,55.454399999998714-55.454200000000128-55.454399999998714h0Zm10.314099999999598,0h0c14.742699999999786-14.742699999998877,30.396800000000439-30.396499999998923,45.14010000000053-45.139800000000832,14.742999999998574,14.743300000001909,30.39639999999963,30.397100000001956,45.139699999999721,45.139800000000832-14.74330000000009,14.743500000000495-30.396700000001147,30.396700000001147-45.139699999999721,45.139999999999418-14.74330000000009-14.743299999998271-30.397400000000744-30.396499999998923-45.14010000000053-45.139999999999418Z" style="fill: #00b0dc; fill-rule: evenodd; opacity: .18;"/>
    </g>
    <g>
      <rect x="262.440599999999904" width="77.628399999999601" height="935.841799999998329" style="fill: #008fca;"/>
      <path d="m333.744399999999587,479.4445999999989l-71.303599999998369,71.303800000001502m71.303599999998369-110.785900000000765l-71.303599999998369,71.303499999999985m71.303599999998369-82.921300000001793l-71.303599999998369,71.3033000000014m71.303599999998369-48.719900000000052l-71.303599999998369,71.303200000000288m71.303599999998369-58.415799999998853l-71.303599999998369,71.303199999998469m53.675799999998162,400.722799999999552h-1.936700000000201l-51.739099999997961-51.739600000000792v-4.143700000000536l54.779299999999239,54.77980000000025-1.103500000001077,1.103500000001077h0Zm-39.155300000000352,0l.413000000000466-.412700000000768-14.933499999998276-14.933699999997771v1.380999999997584l13.965499999999338,13.965400000000955h.554999999998472Zm-14.52049999999781-94.328199999999924v-2.905800000000454l1.453099999997903,1.453100000002451-1.453099999997903,1.452699999998003h0Zm0-14.244599999998172v-2.859599999999773l8.552499999998872,8.552399999996851-1.429799999999886,1.429800000001705-7.122699999998986-7.122599999998783h0Zm0-12.172900000001391l13.208599999999024,13.208600000001752,2.145000000000437-2.144700000000739-15.35359999999946-15.353500000001077v4.289600000000064h0Zm0-12.395300000000134v-1.429799999998068l20.121499999998377,20.121499999997468-.714899999999034.714899999999034-19.406599999999344-19.406599999998434h0Zm0-10.188300000001618v-4.289600000000064l26.645399999998517,26.645300000000134-2.144899999999325,2.144700000000739-24.500499999999192-24.500400000000809h0Zm0-119.604199999997945v-6.372299999999086l3.186199999999189,3.186200000000099-3.186199999999189,3.186099999998987h0Zm0-16.726399999999558l69.922499999997854,69.922200000000885,2.762400000001435-2.762000000002445-72.684899999999288-72.684900000000198v5.524700000001758h0Zm0-17.010399999999208l70.612799999997151,70.612699999997858,1.381600000001526-1.381600000000617-71.994399999998677-71.99369999999908v2.762600000001839h0Zm0-12.197500000002037l70.267799999998715,70.267500000001746,2.071599999999307-2.071600000002945-72.339399999998022-72.339599999999336v4.143700000000536h0Zm0-12.346300000001065l70.958599999999024,70.958600000001752.690199999999095-.690500000000611-71.648799999998118-71.64969999999812v1.381599999996979h0Zm0-10.237599999996746l70.267799999998715,70.267799999997806,2.071599999999307-2.071899999999005-72.339399999998022-72.338999999999942v4.143100000001141h0Zm0-18.709800000000541v-18.602900000001682l56.8241999999982-56.825300000000425,14.479400000000169,14.479700000000776v12.298900000000685l-14.479400000000169-14.478500000001077c-17.580200000000332,17.579900000000634-36.246600000000399,36.2458000000006-53.826800000000731,53.826800000000731h0c17.580200000000332,17.579899999998815,36.246600000000399,36.246099999998478,53.826800000000731,53.826200000001336l14.479400000000169-14.479000000002998v12.29950000000099l-14.479400000000169,14.47820000000138-56.8241999999982-56.823599999999715h0Zm0-107.098000000001775v-16.446899999999005l24.73399999999765-24.733700000000681-24.73399999999765-24.734300000000076v-16.44629999999961l41.180899999998474,41.180599999999686-41.180899999998474,41.180599999999686h0Zm0-112.410099999999147l56.8241999999982,56.824099999999817,14.479400000000169-14.478500000001077v-31.708899999997811l-14.479699999999866,14.480199999998149-56.823899999998503-56.824099999998907v31.70719999999983h0Zm0-84.976200000000063v-57.347999999999956l56.828499999998712-56.828400000000329,14.475099999999657,14.475100000000566v142.054900000000089l-14.475099999999657,14.475400000000263-56.828499999998712-56.829000000000633h0Zm0-110.61660000000029l56.823899999998503-56.824200000000019,14.479699999999866,14.480500000000575v-31.708300000000236l-14.479400000000169-14.479400000000169-56.8241999999982,56.823900000000322v31.707499999999527h0Zm0-60.810800000000199v-5.524499999999534l69.922499999997854-69.922800000000279,2.762400000001435,2.762400000000525-72.684899999999288,72.684899999999288h0Zm0-26.42659999999978v-2.763199999999415L333.053599999998369,9.96599999999944l1.381600000001526,1.38169999999991-71.994399999998677,71.993999999999687h0Zm0-19.961899999999332L323.951499999999214,1.868899999999485,322.082899999999427.000299999998788h-.406500000000051l-59.235599999998158,59.235900000000584v4.143600000000333h0Zm0-18.953000000000429L305.689899999999398,1.178099999999176l-.690500000000611-.690300000000207-42.558599999997568,42.5583000000006v1.380699999999706h0Zm0-17.236299999999574l25.321399999997993-25.321600000000217L285.893599999999424.000299999998788h-.406500000000051l-23.046299999998155,23.046200000000681v4.144000000000233h0Zm50.051099999997859,838.159599999999955l21.252500000000509,21.252799999998388v-42.504699999997683l-21.252500000000509,21.251899999999296h0Zm21.252500000000509-60.590199999998731l-60.591099999999642,60.590199999998731h0l60.591099999999642,60.591700000000856v-14.679200000002311l-45.912500000000364-45.912499999998545h0l45.912500000000364-45.912400000001071v-14.67779999999766h0Zm-47.642799999999625-228.381200000001627l33.165100000000166,33.165100000000166,14.477699999999459-14.477699999999459v-37.375900000000911l-14.477699999999459-14.478000000000975-33.165100000000166,33.166500000001179Z" style="fill: #039; fill-rule: evenodd; opacity: .36;"/>
    </g>
  </g>
</svg>